<?xml version="1.0" standalone="no"?>
<!DOCTYPE svg PUBLIC "-//W3C//DTD SVG 20010904//EN"
 "http://www.w3.org/TR/2001/REC-SVG-20010904/DTD/svg10.dtd">
<svg version="1.0" xmlns="http://www.w3.org/2000/svg"
 width="580.000000pt" height="580.000000pt" viewBox="0 0 580.000000 580.000000"
 preserveAspectRatio="xMidYMid meet">
<metadata>
Created by potrace 1.11, written by Peter Selinger 2001-2013
</metadata>
<g transform="translate(0.000000,580.000000) scale(0.100000,-0.100000)"
fill="#000000" stroke="none">
<path d="M3528 5658 c-32 -6 -58 -14 -58 -18 0 -4 -10 -10 -23 -14 -32 -8
-112 -87 -135 -133 -36 -72 -47 -146 -32 -210 7 -32 22 -75 32 -95 22 -46 98
-124 130 -133 13 -4 26 -13 30 -19 5 -7 49 -11 125 -11 l118 0 57 38 c109 73
151 151 151 277 0 105 -24 164 -92 230 -57 54 -99 77 -170 90 -60 11 -54 11
-133 -2z"/>
<path d="M1975 5610 c-3 -5 -14 -10 -23 -10 -55 0 -166 -97 -203 -177 -28 -62
-30 -179 -3 -252 10 -30 25 -56 31 -58 7 -3 13 -10 13 -15 0 -6 16 -25 35 -42
53 -48 63 -56 72 -56 4 0 22 -7 38 -16 36 -19 207 -23 213 -5 2 6 11 11 19 11
44 0 141 87 172 155 45 98 49 134 25 229 -36 144 -169 246 -321 246 -34 0 -65
-4 -68 -10z"/>
<path d="M2743 5273 c-13 -2 -23 -9 -23 -14 0 -5 -6 -9 -14 -9 -8 0 -28 -15
-45 -32 -17 -18 -38 -40 -46 -49 -8 -9 -15 -20 -15 -26 0 -6 -7 -24 -15 -39
-22 -42 -19 -146 4 -197 22 -47 94 -127 116 -127 7 0 15 -6 18 -12 2 -9 33
-13 108 -13 87 0 109 3 134 20 93 62 145 145 145 234 0 64 -38 152 -83 196
-63 59 -86 69 -177 71 -47 1 -95 0 -107 -3z"/>
<path d="M4016 4921 c-3 -4 -19 -11 -36 -14 -33 -7 -45 -15 -97 -67 -53 -53
-77 -112 -76 -193 0 -38 5 -73 12 -80 6 -6 11 -19 11 -29 0 -10 7 -21 15 -24
8 -4 15 -12 15 -18 0 -17 52 -62 99 -87 57 -30 175 -28 239 3 117 57 171 175
142 312 -6 31 -16 56 -21 56 -5 0 -9 6 -9 13 0 23 -97 107 -130 113 -17 4 -33
11 -36 15 -3 5 -32 9 -64 9 -32 0 -61 -4 -64 -9z"/>
<path d="M1535 4843 c-57 -16 -129 -83 -160 -149 -33 -70 -34 -155 -3 -222 28
-58 101 -131 140 -139 15 -3 31 -10 34 -14 7 -12 154 -12 154 0 0 5 12 11 28
14 35 7 106 68 127 110 10 17 23 55 31 82 28 100 -24 223 -120 286 -45 29 -59
33 -131 35 -44 2 -89 0 -100 -3z"/>
<path d="M3320 4801 c0 -5 -13 -12 -29 -16 -51 -11 -108 -77 -126 -147 -26
-98 22 -204 115 -255 39 -21 55 -24 117 -20 49 3 77 9 88 20 9 10 21 17 26 17
12 0 49 37 49 50 0 6 4 10 9 10 12 0 41 98 41 138 0 17 -4 34 -10 37 -5 3 -10
15 -10 27 0 32 -55 92 -110 121 -38 20 -67 27 -106 27 -30 0 -54 -4 -54 -9z"/>
<path d="M4867 4784 c-3 -3 -28 -10 -54 -15 -50 -9 -113 -38 -113 -51 0 -5 -6
-8 -13 -8 -23 0 -90 -90 -111 -150 -31 -90 -14 -206 42 -280 44 -58 56 -70 69
-70 7 0 13 -3 13 -8 0 -13 62 -41 115 -53 63 -13 68 -13 137 -1 95 18 183 87
230 180 33 67 33 197 0 264 -46 92 -136 163 -225 178 -29 5 -59 11 -68 15 -8
3 -18 3 -22 -1z"/>
<path d="M2266 4771 c-3 -4 -18 -11 -33 -14 -41 -8 -107 -76 -128 -130 -23
-61 -16 -143 16 -189 33 -48 62 -78 76 -78 6 0 13 -6 15 -12 3 -9 33 -13 103
-13 70 0 100 4 102 13 3 6 10 12 17 12 18 0 68 58 90 104 27 57 19 146 -20
209 -16 26 -34 47 -41 47 -7 0 -16 6 -20 13 -19 31 -162 62 -177 38z"/>
<path d="M770 4663 c-19 -2 -49 -10 -67 -18 -17 -8 -34 -15 -37 -15 -12 0 -66
-49 -112 -101 -60 -68 -74 -227 -29 -324 27 -60 87 -128 123 -139 12 -4 22
-11 22 -16 0 -5 16 -12 35 -16 19 -3 38 -10 41 -15 7 -12 141 -11 149 1 3 6
14 10 23 10 10 0 34 9 55 20 165 89 227 303 131 457 -22 35 -113 123 -128 123
-6 0 -23 6 -37 14 -30 15 -117 25 -169 19z"/>
<path d="M2813 4513 c-18 -2 -33 -8 -33 -14 0 -5 -6 -9 -14 -9 -23 0 -72 -64
-85 -113 -34 -119 68 -237 192 -224 29 3 66 13 83 23 47 27 84 95 84 153 0
123 -97 201 -227 184z"/>
<path d="M3620 4260 c0 -5 -6 -10 -12 -10 -20 -1 -63 -43 -81 -80 -21 -41 -22
-117 -2 -157 19 -38 63 -83 93 -94 36 -14 124 -10 152 6 14 8 33 18 43 21 9 3
17 13 17 20 0 8 4 14 9 14 12 0 41 86 41 119 -1 42 -44 114 -86 143 -33 23
-50 27 -106 28 -39 0 -68 -4 -68 -10z"/>
<path d="M1965 4211 c-70 -32 -123 -128 -110 -197 10 -57 69 -134 101 -134 8
0 14 -4 14 -10 0 -18 128 -12 158 7 78 50 113 137 86 215 -13 40 -36 70 -80
107 -19 17 -140 25 -169 12z"/>
<path d="M4173 4191 c-86 -44 -133 -117 -133 -207 0 -62 17 -107 58 -151 53
-57 80 -68 168 -68 74 0 84 2 120 30 107 80 132 184 73 296 -18 32 -35 59 -39
59 -4 0 -17 9 -30 20 -13 11 -31 20 -41 20 -10 0 -21 5 -24 10 -10 16 -117 10
-152 -9z"/>
<path d="M3138 4162 c-51 -31 -76 -104 -59 -169 10 -36 25 -57 68 -93 20 -17
130 -21 141 -5 4 6 16 15 27 21 55 30 72 137 33 199 -13 19 -31 37 -40 41 -10
3 -18 10 -18 15 0 16 -123 9 -152 -9z"/>
<path d="M2450 4152 c-34 -16 -60 -38 -60 -49 0 -6 -5 -13 -12 -15 -6 -2 -13
-30 -16 -64 -3 -54 -1 -63 27 -101 17 -24 38 -43 46 -43 8 0 15 -4 15 -10 0
-15 94 -12 124 4 34 17 75 64 82 94 9 33 -2 116 -15 120 -6 2 -11 9 -11 15 -1
25 -54 51 -110 54 -30 1 -62 -1 -70 -5z"/>
<path d="M1372 4101 c-141 -72 -175 -251 -68 -356 62 -60 85 -70 166 -70 81 0
104 10 166 70 108 106 73 287 -70 356 -50 24 -147 24 -194 0z"/>
<path d="M4840 3901 c-8 -4 -32 -12 -54 -15 -43 -8 -48 -12 -115 -77 -40 -39
-50 -57 -64 -113 -15 -61 -15 -71 0 -132 14 -56 24 -74 64 -113 26 -25 54 -51
61 -57 17 -14 103 -36 138 -36 36 0 122 22 136 36 7 6 29 24 48 40 20 15 36
32 36 38 0 5 7 16 15 24 8 9 15 24 15 34 0 10 5 22 10 25 6 3 10 37 10 75 0
38 -4 72 -10 75 -5 3 -10 15 -10 25 0 10 -7 25 -15 34 -8 8 -15 19 -15 24 0 6
-16 23 -36 38 -19 16 -41 34 -48 40 -10 10 -46 21 -131 40 -11 2 -27 0 -35 -5z"/>
<path d="M836 3781 c-3 -5 -21 -12 -40 -15 -19 -4 -39 -13 -46 -21 -7 -8 -16
-15 -21 -15 -12 0 -49 -38 -49 -50 0 -5 -4 -10 -8 -10 -5 0 -18 -23 -30 -50
-30 -68 -29 -146 2 -213 25 -55 88 -127 111 -127 7 0 15 -5 17 -10 5 -17 113
-30 173 -20 57 9 155 64 155 87 0 7 4 13 9 13 5 0 13 10 17 23 4 12 12 25 18
29 6 4 12 44 14 88 5 99 -12 151 -67 206 -56 56 -67 64 -101 71 -17 3 -33 10
-36 14 -7 12 -111 12 -118 0z"/>
<path d="M3775 3781 c-3 -5 -18 -12 -33 -16 -65 -14 -105 -140 -64 -203 39
-61 52 -67 134 -67 75 0 78 1 107 34 16 18 33 47 36 63 11 47 -3 113 -29 142
-40 42 -135 72 -151 47z"/>
<path d="M1890 3714 c-43 -23 -70 -46 -70 -60 0 -8 -4 -14 -9 -14 -5 0 -12
-17 -16 -39 -8 -46 10 -93 51 -136 26 -28 33 -30 99 -30 68 0 72 1 109 37 35
34 38 41 38 97 1 71 -15 100 -72 136 -44 28 -91 31 -130 9z"/>
<path d="M4136 3562 c-63 -36 -96 -90 -96 -155 0 -61 12 -88 60 -138 38 -39
44 -42 108 -46 78 -5 118 12 165 70 25 30 29 45 31 100 1 58 -3 70 -29 109
-17 23 -41 47 -53 53 -12 5 -22 13 -22 17 0 15 -134 7 -164 -10z"/>
<path d="M1478 3494 c-10 -3 -18 -10 -18 -15 0 -5 -6 -9 -13 -9 -12 0 -47 -34
-47 -46 0 -3 -7 -12 -15 -20 -10 -11 -15 -36 -15 -84 0 -48 5 -73 15 -84 8 -8
15 -18 15 -23 0 -29 91 -73 151 -73 60 0 149 46 149 76 0 7 6 14 13 17 8 2 12
29 12 87 0 58 -4 85 -12 88 -7 2 -13 8 -13 13 0 14 -33 49 -46 49 -7 0 -14 5
-16 12 -5 13 -127 21 -160 12z"/>
<path d="M5370 3331 c-8 -5 -34 -12 -57 -16 -24 -4 -43 -10 -43 -15 0 -4 -10
-10 -22 -14 -41 -10 -107 -82 -138 -150 -26 -58 -28 -186 -3 -248 32 -82 71
-126 151 -171 53 -29 64 -32 152 -32 73 0 104 4 134 19 118 56 196 176 196
301 0 51 -28 155 -42 155 -4 0 -8 6 -8 13 0 19 -64 82 -120 118 -45 29 -175
55 -200 40z"/>
<path d="M4538 3194 c-10 -3 -18 -10 -18 -15 0 -5 -6 -9 -13 -9 -19 0 -71 -59
-90 -102 -50 -109 19 -274 123 -295 17 -3 33 -10 36 -14 7 -12 91 -12 98 0 3
4 18 11 33 14 32 6 113 79 113 101 0 8 5 16 11 18 6 2 13 33 16 69 8 91 -18
140 -113 218 -17 15 -160 25 -196 15z"/>
<path d="M288 3163 c-16 -2 -28 -8 -28 -13 0 -4 -10 -10 -22 -14 -31 -7 -111
-83 -134 -126 -38 -72 -59 -219 -34 -235 6 -3 10 -15 10 -26 0 -53 91 -159
170 -196 83 -38 209 -37 290 4 50 26 114 94 144 153 22 43 26 65 26 136 0 69
-4 93 -26 138 -23 48 -65 100 -107 131 -52 38 -85 48 -172 51 -49 1 -102 0
-117 -3z"/>
<path d="M3968 3086 c-20 -14 -43 -40 -52 -57 -69 -138 92 -278 219 -191 82
57 90 167 17 233 -30 27 -45 34 -91 37 -47 3 -62 -1 -93 -22z"/>
<path d="M1116 3091 c-3 -5 -17 -12 -32 -15 -44 -11 -82 -49 -113 -112 -20
-39 -23 -57 -18 -112 3 -37 10 -68 16 -70 6 -2 11 -9 11 -15 0 -16 48 -68 85
-92 39 -26 190 -29 219 -5 48 40 85 82 100 113 21 46 20 132 -3 182 -23 51
-78 105 -114 112 -15 3 -30 10 -33 14 -7 12 -111 12 -118 0z"/>
<path d="M1680 3025 c-7 -8 -18 -15 -24 -15 -14 0 -34 -31 -52 -83 -19 -53 -5
-99 44 -147 33 -32 41 -35 97 -35 46 0 67 5 92 23 121 86 56 272 -95 272 -32
0 -54 -5 -62 -15z"/>
<path d="M4216 2712 c-45 -6 -95 -41 -128 -91 -37 -54 -17 -180 34 -219 9 -7
25 -20 34 -30 24 -23 163 -25 186 -2 9 8 25 22 37 30 11 8 21 20 21 26 0 7 5
14 12 16 13 5 24 114 15 150 -7 27 -51 77 -87 99 -28 18 -81 27 -124 21z"/>
<path d="M1479 2608 c-57 -34 -81 -81 -82 -154 -1 -78 23 -120 95 -167 30 -19
148 -25 148 -7 0 6 6 10 14 10 23 0 66 40 86 81 39 75 21 158 -48 220 -33 31
-43 34 -107 37 -58 2 -76 -2 -106 -20z"/>
<path d="M4870 2611 c-8 -5 -32 -11 -52 -15 -21 -4 -38 -11 -38 -16 0 -5 -10
-12 -22 -16 -30 -9 -69 -52 -96 -107 -29 -58 -30 -173 -3 -232 33 -71 121
-145 173 -145 9 0 20 -4 23 -10 3 -5 26 -10 50 -10 24 0 47 5 50 10 3 6 13 10
22 10 28 0 102 42 132 76 53 58 74 119 68 199 -2 38 -13 86 -23 105 -34 66
-129 140 -181 140 -12 0 -25 5 -28 10 -7 12 -54 13 -75 1z"/>
<path d="M886 2491 c-3 -4 -24 -11 -46 -15 -22 -3 -40 -11 -40 -16 0 -6 -6
-10 -14 -10 -21 0 -106 -101 -106 -127 0 -12 -4 -25 -10 -28 -12 -8 -13 -142
-1 -149 4 -3 11 -19 14 -35 4 -17 26 -49 50 -73 61 -60 70 -66 113 -74 22 -3
47 -11 57 -16 13 -7 40 -4 85 8 74 20 75 21 141 85 40 38 50 56 64 112 15 59
15 73 3 126 -8 33 -24 74 -35 90 -37 52 -103 101 -143 108 -21 3 -41 10 -44
14 -3 5 -23 9 -44 9 -21 0 -41 -4 -44 -9z"/>
<path d="M3815 2421 c-74 -18 -107 -61 -108 -140 0 -71 24 -112 86 -141 42
-21 97 -27 97 -11 0 5 11 12 25 15 30 8 65 36 65 52 0 7 4 14 10 16 5 2 12 21
15 43 7 47 -24 118 -65 146 -30 21 -85 29 -125 20z"/>
<path d="M1965 2370 c-3 -5 -14 -10 -24 -10 -29 0 -72 -40 -91 -84 -15 -36
-15 -48 -5 -93 14 -59 37 -83 103 -108 39 -16 45 -16 88 1 142 54 138 238 -6
288 -53 19 -57 19 -65 6z"/>
<path d="M4255 2173 c-22 -6 -83 -49 -103 -73 -73 -88 -66 -223 16 -305 140
-140 382 -38 382 161 0 83 -39 151 -114 198 -30 19 -140 31 -181 19z"/>
<path d="M1435 2069 c-22 -12 -50 -33 -62 -46 -34 -36 -63 -107 -63 -153 0
-83 76 -193 143 -207 15 -3 30 -10 33 -14 7 -12 101 -11 109 0 3 5 18 12 34
16 35 7 86 56 112 107 24 47 25 136 2 186 -19 43 -71 102 -89 102 -7 0 -14 5
-16 12 -2 6 -36 13 -84 15 -67 4 -85 1 -119 -18z"/>
<path d="M3708 1993 c-16 -2 -28 -9 -28 -14 0 -5 -6 -9 -14 -9 -22 0 -70 -64
-85 -114 -11 -39 -11 -51 3 -93 21 -60 42 -86 95 -114 34 -18 53 -21 101 -16
32 3 65 10 72 16 7 6 25 21 39 34 36 30 63 106 55 152 -21 109 -124 178 -238
158z"/>
<path d="M3230 1982 c0 -4 -10 -12 -22 -17 -12 -6 -33 -26 -46 -45 -20 -29
-23 -45 -20 -91 4 -51 9 -61 44 -95 37 -37 42 -39 104 -39 62 0 67 2 104 38
34 33 40 46 44 92 3 43 0 61 -19 94 -13 24 -33 44 -46 47 -13 4 -23 10 -23 15
0 5 -27 9 -60 9 -33 0 -60 -3 -60 -8z"/>
<path d="M2502 1948 c-25 -13 -45 -31 -48 -45 -4 -13 -10 -23 -14 -23 -12 0
-20 -57 -13 -92 4 -18 24 -50 49 -75 41 -40 47 -43 99 -43 56 0 64 4 115 52
53 51 49 150 -9 209 -43 42 -117 50 -179 17z"/>
<path d="M2030 1932 c-57 -27 -110 -107 -110 -166 0 -41 21 -92 52 -127 110
-122 318 -44 318 120 0 62 -14 96 -59 141 -33 33 -39 35 -111 37 -41 2 -82 -1
-90 -5z"/>
<path d="M4896 1831 c-3 -5 -22 -12 -41 -15 -19 -4 -35 -11 -35 -16 0 -6 -6
-10 -13 -10 -17 0 -107 -90 -107 -107 0 -7 -4 -13 -8 -13 -14 0 -42 -108 -42
-160 0 -52 28 -160 42 -160 4 0 8 -6 8 -13 0 -17 90 -107 107 -107 7 0 13 -4
13 -10 0 -5 16 -12 35 -16 19 -3 38 -10 41 -15 7 -11 149 -12 172 0 9 4 35 17
57 27 47 22 130 103 141 136 3 13 12 26 18 30 7 5 11 50 11 128 0 78 -4 123
-11 128 -6 4 -15 17 -18 30 -11 33 -94 114 -141 136 -22 10 -48 23 -57 27 -23
12 -165 11 -172 0z"/>
<path d="M866 1712 c-3 -5 -26 -13 -51 -16 -25 -4 -45 -11 -45 -17 0 -5 -6 -9
-13 -9 -14 0 -45 -23 -85 -62 -12 -13 -36 -50 -52 -84 -26 -52 -30 -72 -30
-140 0 -50 5 -89 15 -108 8 -15 15 -35 15 -42 0 -8 7 -17 15 -20 8 -4 15 -12
15 -18 0 -15 62 -76 78 -76 7 0 12 -4 12 -9 0 -5 12 -12 27 -16 15 -3 31 -12
35 -18 5 -8 41 -12 105 -12 79 0 107 4 143 21 55 27 129 97 151 144 34 73 39
93 39 153 0 128 -65 235 -179 295 -54 28 -184 51 -195 34z"/>
<path d="M2870 1693 c-8 -3 -19 -10 -25 -15 -5 -4 -19 -16 -31 -26 -36 -29
-57 -82 -56 -141 0 -31 5 -57 11 -59 6 -2 11 -10 11 -17 0 -17 58 -75 75 -75
7 0 15 -5 17 -11 5 -15 133 -14 150 0 7 6 25 20 39 31 32 23 69 99 69 139 0
64 -58 148 -118 172 -25 10 -118 11 -142 2z"/>
<path d="M4095 1530 c-3 -5 -14 -10 -24 -10 -29 0 -121 -80 -121 -106 0 -8 -4
-14 -8 -14 -5 0 -16 -27 -26 -61 -17 -54 -17 -68 -6 -117 19 -85 82 -172 135
-188 11 -4 23 -12 27 -18 4 -6 43 -11 96 -11 69 0 97 4 127 20 189 97 210 333
41 472 -8 7 -26 15 -40 19 -15 3 -29 10 -32 15 -7 12 -161 11 -169 -1z"/>
<path d="M3433 1520 c-62 -13 -143 -72 -143 -106 0 -7 -5 -14 -12 -16 -7 -3
-14 -32 -16 -75 -5 -84 18 -141 74 -188 58 -48 172 -82 188 -56 3 5 21 12 39
15 37 7 117 75 117 100 0 8 5 16 11 18 6 2 13 33 16 69 4 50 1 75 -12 105 -21
45 -73 104 -92 104 -7 0 -13 4 -13 9 0 9 -24 16 -87 25 -16 2 -47 0 -70 -4z"/>
<path d="M2315 1469 c-54 -29 -91 -72 -109 -127 -18 -52 -21 -118 -6 -127 6
-3 10 -17 10 -30 0 -32 78 -111 119 -120 17 -3 31 -11 31 -16 0 -12 107 -12
114 0 3 5 18 12 33 16 15 3 47 26 70 50 34 34 47 57 59 103 14 54 14 65 -1
116 -9 31 -21 56 -26 56 -5 0 -9 5 -9 10 0 11 -36 50 -47 50 -3 0 -15 7 -25
17 -13 11 -42 18 -96 20 -65 4 -83 1 -117 -18z"/>
<path d="M1705 1469 c-11 -4 -31 -8 -45 -8 -55 -2 -146 -69 -181 -135 -25 -46
-33 -133 -19 -200 6 -31 16 -56 21 -56 5 0 9 -5 9 -12 0 -22 103 -108 137
-114 18 -3 36 -10 39 -15 8 -14 88 -10 130 6 93 37 138 76 176 155 25 51 31
171 10 192 -7 7 -12 18 -12 25 0 29 -81 122 -107 123 -7 0 -13 4 -13 10 0 5
-17 12 -37 15 -21 4 -49 10 -63 14 -14 5 -34 5 -45 0z"/>
<path d="M2863 1093 c-13 -2 -23 -9 -23 -14 0 -5 -6 -9 -12 -9 -19 0 -75 -56
-105 -103 -20 -32 -27 -59 -31 -112 -6 -103 28 -175 122 -253 9 -7 29 -15 46
-19 17 -3 33 -10 36 -14 9 -16 107 -10 157 9 64 24 133 86 158 142 17 37 20
61 17 134 -2 60 -7 91 -15 94 -7 2 -13 10 -13 18 0 19 -85 104 -104 104 -8 0
-16 6 -18 13 -5 12 -168 21 -215 10z"/>
<path d="M3685 884 c-11 -3 -34 -12 -52 -20 -17 -8 -34 -14 -37 -14 -20 0
-126 -106 -126 -125 0 -8 -4 -15 -8 -15 -24 0 -55 -201 -33 -214 4 -3 11 -24
15 -46 3 -22 11 -40 16 -40 6 0 10 -5 10 -10 0 -37 114 -135 169 -146 17 -4
34 -11 37 -15 16 -26 203 6 237 40 6 6 15 11 21 11 17 0 91 86 115 135 33 65
34 198 3 266 -24 52 -97 139 -118 139 -8 0 -14 4 -14 9 0 5 -12 12 -27 16 -15
3 -30 11 -33 16 -7 10 -145 21 -175 13z"/>
<path d="M2125 829 c-33 -5 -61 -13 -63 -19 -2 -5 -9 -10 -16 -10 -11 0 -32
-14 -71 -48 -27 -24 -56 -66 -76 -109 -32 -70 -31 -201 2 -269 27 -56 78 -111
141 -151 40 -26 51 -28 148 -28 115 0 163 15 226 72 64 57 115 171 114 251 -1
37 -22 110 -44 152 -26 47 -98 118 -130 126 -14 3 -26 10 -26 14 0 19 -128 30
-205 19z"/>
</g>
</svg>
